<mxfile host="app.diagrams.net" agent="Mozilla/5.0 (Windows NT 10.0; Win64; x64) AppleWebKit/537.36 (KHTML, like Gecko) Chrome/133.0.0.0 Safari/537.36" version="26.0.16" pages="2">
  <diagram name="1 oldal" id="OsvAiRPGhBOQV1ppMJjS">
    <mxGraphModel dx="1434" dy="780" grid="1" gridSize="10" guides="1" tooltips="1" connect="1" arrows="1" fold="1" page="1" pageScale="1" pageWidth="827" pageHeight="1169" math="0" shadow="0">
      <root>
        <mxCell id="0" />
        <mxCell id="1" parent="0" />
        <mxCell id="RkmBpbCj7bopOaLlgFP4-1" value="" style="ellipse;html=1;shape=startState;fillColor=#000000;strokeColor=#ff0000;" parent="1" vertex="1">
          <mxGeometry x="20" y="175" width="30" height="30" as="geometry" />
        </mxCell>
        <mxCell id="RkmBpbCj7bopOaLlgFP4-2" value="" style="edgeStyle=orthogonalEdgeStyle;html=1;verticalAlign=bottom;endArrow=open;endSize=8;strokeColor=#ff0000;rounded=0;entryX=0;entryY=0.5;entryDx=0;entryDy=0;" parent="1" source="RkmBpbCj7bopOaLlgFP4-8" target="RkmBpbCj7bopOaLlgFP4-9" edge="1">
          <mxGeometry relative="1" as="geometry">
            <mxPoint x="415" y="190" as="targetPoint" />
          </mxGeometry>
        </mxCell>
        <mxCell id="RkmBpbCj7bopOaLlgFP4-3" value="" style="endArrow=open;html=1;rounded=0;strokeColor=#FF0000;exitX=0.5;exitY=0;exitDx=0;exitDy=0;edgeStyle=orthogonalEdgeStyle;entryX=0.5;entryY=0;entryDx=0;entryDy=0;endFill=0;" parent="1" source="RkmBpbCj7bopOaLlgFP4-9" target="RkmBpbCj7bopOaLlgFP4-8" edge="1">
          <mxGeometry width="50" height="50" relative="1" as="geometry">
            <mxPoint x="447.78999999999996" y="154.64466094067257" as="sourcePoint" />
            <mxPoint x="355" y="100" as="targetPoint" />
          </mxGeometry>
        </mxCell>
        <mxCell id="RkmBpbCj7bopOaLlgFP4-4" value="[e is not owner]" style="text;html=1;align=center;verticalAlign=middle;whiteSpace=wrap;rounded=0;" parent="1" vertex="1">
          <mxGeometry x="265" y="110" width="90" height="30" as="geometry" />
        </mxCell>
        <mxCell id="RkmBpbCj7bopOaLlgFP4-5" value="[e is owner]" style="text;html=1;align=center;verticalAlign=middle;resizable=0;points=[];autosize=1;strokeColor=none;fillColor=none;" parent="1" vertex="1">
          <mxGeometry x="370" y="240" width="80" height="30" as="geometry" />
        </mxCell>
        <mxCell id="RkmBpbCj7bopOaLlgFP4-6" value="onTurnBegin(e : Player)" style="text;html=1;align=center;verticalAlign=middle;resizable=0;points=[];autosize=1;strokeColor=none;fillColor=none;" parent="1" vertex="1">
          <mxGeometry x="255" y="190" width="150" height="30" as="geometry" />
        </mxCell>
        <mxCell id="RkmBpbCj7bopOaLlgFP4-7" value="" style="edgeStyle=orthogonalEdgeStyle;html=1;verticalAlign=bottom;endArrow=open;endSize=8;strokeColor=#ff0000;rounded=0;" parent="1" source="RkmBpbCj7bopOaLlgFP4-1" target="RkmBpbCj7bopOaLlgFP4-8" edge="1">
          <mxGeometry relative="1" as="geometry">
            <mxPoint x="205" y="185" as="targetPoint" />
            <mxPoint x="95" y="185" as="sourcePoint" />
          </mxGeometry>
        </mxCell>
        <mxCell id="RkmBpbCj7bopOaLlgFP4-8" value="&lt;div&gt;WaitingForTurn&lt;/div&gt;" style="rounded=1;whiteSpace=wrap;html=1;arcSize=40;fontColor=#000000;fillColor=#ffffc0;strokeColor=#ff0000;" parent="1" vertex="1">
          <mxGeometry x="135" y="170" width="120" height="40" as="geometry" />
        </mxCell>
        <mxCell id="RkmBpbCj7bopOaLlgFP4-9" value="" style="rhombus;whiteSpace=wrap;html=1;" parent="1" vertex="1">
          <mxGeometry x="414" y="155" width="70" height="70" as="geometry" />
        </mxCell>
        <mxCell id="RkmBpbCj7bopOaLlgFP4-10" value="&lt;div&gt;WaitForInput&lt;/div&gt;" style="rounded=1;whiteSpace=wrap;html=1;arcSize=40;fontColor=#000000;fillColor=#ffffc0;strokeColor=#ff0000;" parent="1" vertex="1">
          <mxGeometry x="469.99999999999994" y="440" width="120" height="40" as="geometry" />
        </mxCell>
        <mxCell id="RkmBpbCj7bopOaLlgFP4-15" value="" style="edgeStyle=orthogonalEdgeStyle;html=1;verticalAlign=bottom;endArrow=open;endSize=8;strokeColor=#ff0000;rounded=0;entryX=0.5;entryY=1;entryDx=0;entryDy=0;exitX=0;exitY=0.5;exitDx=0;exitDy=0;" parent="1" source="RkmBpbCj7bopOaLlgFP4-10" target="RkmBpbCj7bopOaLlgFP4-8" edge="1">
          <mxGeometry relative="1" as="geometry">
            <mxPoint x="370" y="350" as="targetPoint" />
            <mxPoint x="370" y="270" as="sourcePoint" />
          </mxGeometry>
        </mxCell>
        <mxCell id="RkmBpbCj7bopOaLlgFP4-16" value="endTurn" style="text;html=1;align=center;verticalAlign=middle;resizable=0;points=[];autosize=1;strokeColor=none;fillColor=none;" parent="1" vertex="1">
          <mxGeometry x="310" y="430" width="70" height="30" as="geometry" />
        </mxCell>
        <mxCell id="RkmBpbCj7bopOaLlgFP4-17" value="Eat" style="rounded=1;whiteSpace=wrap;html=1;arcSize=40;fontColor=#000000;fillColor=#ffffc0;strokeColor=#ff0000;" parent="1" vertex="1">
          <mxGeometry x="294" y="560" width="120" height="40" as="geometry" />
        </mxCell>
        <mxCell id="RkmBpbCj7bopOaLlgFP4-18" value="" style="edgeStyle=orthogonalEdgeStyle;html=1;verticalAlign=bottom;endArrow=open;endSize=8;strokeColor=#ff0000;rounded=0;" parent="1" source="RkmBpbCj7bopOaLlgFP4-17" target="RkmBpbCj7bopOaLlgFP4-8" edge="1">
          <mxGeometry relative="1" as="geometry">
            <mxPoint x="428" y="610" as="targetPoint" />
          </mxGeometry>
        </mxCell>
        <mxCell id="RkmBpbCj7bopOaLlgFP4-19" value="" style="edgeStyle=orthogonalEdgeStyle;html=1;verticalAlign=bottom;endArrow=open;endSize=8;strokeColor=#ff0000;rounded=0;exitX=0;exitY=0.75;exitDx=0;exitDy=0;entryX=0.5;entryY=0;entryDx=0;entryDy=0;" parent="1" source="RkmBpbCj7bopOaLlgFP4-10" target="RkmBpbCj7bopOaLlgFP4-17" edge="1">
          <mxGeometry relative="1" as="geometry">
            <mxPoint x="438" y="710" as="targetPoint" />
            <mxPoint x="438" y="650" as="sourcePoint" />
            <Array as="points">
              <mxPoint x="470" y="510" />
              <mxPoint x="354" y="510" />
            </Array>
          </mxGeometry>
        </mxCell>
        <mxCell id="RkmBpbCj7bopOaLlgFP4-20" value="eatSpore" style="text;html=1;align=center;verticalAlign=middle;resizable=0;points=[];autosize=1;strokeColor=none;fillColor=none;" parent="1" vertex="1">
          <mxGeometry x="285" y="508" width="70" height="30" as="geometry" />
        </mxCell>
        <mxCell id="RkmBpbCj7bopOaLlgFP4-21" value="Move" style="rounded=1;whiteSpace=wrap;html=1;arcSize=40;fontColor=#000000;fillColor=#ffffc0;strokeColor=#ff0000;" parent="1" vertex="1">
          <mxGeometry x="890" y="440" width="120" height="40" as="geometry" />
        </mxCell>
        <mxCell id="RkmBpbCj7bopOaLlgFP4-23" value="" style="edgeStyle=orthogonalEdgeStyle;html=1;verticalAlign=bottom;endArrow=open;endSize=8;strokeColor=#ff0000;rounded=0;exitX=1;exitY=0.5;exitDx=0;exitDy=0;" parent="1" source="RkmBpbCj7bopOaLlgFP4-10" target="RkmBpbCj7bopOaLlgFP4-25" edge="1">
          <mxGeometry relative="1" as="geometry">
            <mxPoint x="630" y="460" as="targetPoint" />
            <mxPoint x="528" y="660" as="sourcePoint" />
          </mxGeometry>
        </mxCell>
        <mxCell id="RkmBpbCj7bopOaLlgFP4-24" value="move" style="text;html=1;align=center;verticalAlign=middle;resizable=0;points=[];autosize=1;strokeColor=none;fillColor=none;" parent="1" vertex="1">
          <mxGeometry x="620" y="430" width="50" height="30" as="geometry" />
        </mxCell>
        <mxCell id="RkmBpbCj7bopOaLlgFP4-25" value="" style="rhombus;whiteSpace=wrap;html=1;" parent="1" vertex="1">
          <mxGeometry x="680" y="420" width="80" height="80" as="geometry" />
        </mxCell>
        <mxCell id="RkmBpbCj7bopOaLlgFP4-26" value="" style="edgeStyle=orthogonalEdgeStyle;html=1;verticalAlign=bottom;endArrow=open;endSize=8;strokeColor=#ff0000;rounded=0;exitX=0.5;exitY=1;exitDx=0;exitDy=0;entryX=0.75;entryY=1;entryDx=0;entryDy=0;" parent="1" source="RkmBpbCj7bopOaLlgFP4-25" target="RkmBpbCj7bopOaLlgFP4-10" edge="1">
          <mxGeometry relative="1" as="geometry">
            <mxPoint x="600" y="470" as="targetPoint" />
            <mxPoint x="518" y="470" as="sourcePoint" />
          </mxGeometry>
        </mxCell>
        <mxCell id="RkmBpbCj7bopOaLlgFP4-28" value="[remainingMoves=0]" style="text;html=1;align=center;verticalAlign=middle;resizable=0;points=[];autosize=1;strokeColor=none;fillColor=none;" parent="1" vertex="1">
          <mxGeometry x="570" y="520" width="130" height="30" as="geometry" />
        </mxCell>
        <mxCell id="RkmBpbCj7bopOaLlgFP4-29" value="" style="edgeStyle=orthogonalEdgeStyle;html=1;verticalAlign=bottom;endArrow=open;endSize=8;strokeColor=#ff0000;rounded=0;exitX=1;exitY=0.5;exitDx=0;exitDy=0;entryX=0;entryY=0.5;entryDx=0;entryDy=0;" parent="1" source="RkmBpbCj7bopOaLlgFP4-25" target="RkmBpbCj7bopOaLlgFP4-21" edge="1">
          <mxGeometry relative="1" as="geometry">
            <mxPoint x="610" y="480" as="targetPoint" />
            <mxPoint x="528" y="480" as="sourcePoint" />
          </mxGeometry>
        </mxCell>
        <mxCell id="RkmBpbCj7bopOaLlgFP4-30" value="[remainingMoves&amp;gt;0]" style="text;html=1;align=center;verticalAlign=middle;resizable=0;points=[];autosize=1;strokeColor=none;fillColor=none;" parent="1" vertex="1">
          <mxGeometry x="760" y="430" width="130" height="30" as="geometry" />
        </mxCell>
        <mxCell id="RkmBpbCj7bopOaLlgFP4-35" value="Cut" style="rounded=1;whiteSpace=wrap;html=1;arcSize=40;fontColor=#000000;fillColor=#ffffc0;strokeColor=#ff0000;" parent="1" vertex="1">
          <mxGeometry x="405" y="850" width="120" height="40" as="geometry" />
        </mxCell>
        <mxCell id="RkmBpbCj7bopOaLlgFP4-36" value="" style="edgeStyle=orthogonalEdgeStyle;html=1;verticalAlign=bottom;endArrow=open;endSize=8;strokeColor=#ff0000;rounded=0;" parent="1" source="RkmBpbCj7bopOaLlgFP4-35" target="RkmBpbCj7bopOaLlgFP4-8" edge="1">
          <mxGeometry relative="1" as="geometry">
            <mxPoint x="460" y="740" as="targetPoint" />
          </mxGeometry>
        </mxCell>
        <mxCell id="RkmBpbCj7bopOaLlgFP4-43" value="cutMycelium" style="text;html=1;align=center;verticalAlign=middle;resizable=0;points=[];autosize=1;strokeColor=none;fillColor=none;" parent="1" vertex="1">
          <mxGeometry x="380" y="630" width="90" height="30" as="geometry" />
        </mxCell>
        <mxCell id="RkmBpbCj7bopOaLlgFP4-46" value="" style="edgeStyle=orthogonalEdgeStyle;html=1;verticalAlign=bottom;endArrow=open;endSize=8;strokeColor=#ff0000;rounded=0;entryX=1;entryY=0.25;entryDx=0;entryDy=0;exitX=0.5;exitY=0;exitDx=0;exitDy=0;" parent="1" source="RkmBpbCj7bopOaLlgFP4-21" target="RkmBpbCj7bopOaLlgFP4-10" edge="1">
          <mxGeometry relative="1" as="geometry">
            <mxPoint x="515" y="410" as="targetPoint" />
            <mxPoint x="820" y="360" as="sourcePoint" />
            <Array as="points">
              <mxPoint x="950" y="390" />
              <mxPoint x="590" y="390" />
            </Array>
          </mxGeometry>
        </mxCell>
        <mxCell id="RkmBpbCj7bopOaLlgFP4-51" value="" style="edgeStyle=orthogonalEdgeStyle;html=1;verticalAlign=bottom;endArrow=open;endSize=8;strokeColor=#ff0000;rounded=0;entryX=0.5;entryY=0;entryDx=0;entryDy=0;exitX=0.25;exitY=1;exitDx=0;exitDy=0;" parent="1" source="RkmBpbCj7bopOaLlgFP4-10" target="RkmBpbCj7bopOaLlgFP4-52" edge="1">
          <mxGeometry relative="1" as="geometry">
            <mxPoint x="430" y="590" as="targetPoint" />
            <mxPoint x="480" y="520" as="sourcePoint" />
            <Array as="points">
              <mxPoint x="500" y="590" />
              <mxPoint x="465" y="590" />
            </Array>
          </mxGeometry>
        </mxCell>
        <mxCell id="RkmBpbCj7bopOaLlgFP4-52" value="" style="rhombus;whiteSpace=wrap;html=1;" parent="1" vertex="1">
          <mxGeometry x="425" y="680" width="80" height="80" as="geometry" />
        </mxCell>
        <mxCell id="RkmBpbCj7bopOaLlgFP4-57" value="" style="edgeStyle=orthogonalEdgeStyle;html=1;verticalAlign=bottom;endArrow=open;endSize=8;strokeColor=#ff0000;rounded=0;exitX=1;exitY=0.5;exitDx=0;exitDy=0;entryX=0.5;entryY=1;entryDx=0;entryDy=0;" parent="1" source="RkmBpbCj7bopOaLlgFP4-52" target="RkmBpbCj7bopOaLlgFP4-10" edge="1">
          <mxGeometry relative="1" as="geometry">
            <mxPoint x="710" y="770" as="targetPoint" />
            <mxPoint x="710" y="710" as="sourcePoint" />
            <Array as="points">
              <mxPoint x="530" y="720" />
            </Array>
          </mxGeometry>
        </mxCell>
        <mxCell id="RkmBpbCj7bopOaLlgFP4-58" value="" style="edgeStyle=orthogonalEdgeStyle;html=1;verticalAlign=bottom;endArrow=open;endSize=8;strokeColor=#ff0000;rounded=0;exitX=0.5;exitY=1;exitDx=0;exitDy=0;entryX=0.5;entryY=0;entryDx=0;entryDy=0;" parent="1" source="RkmBpbCj7bopOaLlgFP4-52" target="RkmBpbCj7bopOaLlgFP4-35" edge="1">
          <mxGeometry relative="1" as="geometry">
            <mxPoint x="720" y="780" as="targetPoint" />
            <mxPoint x="720" y="720" as="sourcePoint" />
          </mxGeometry>
        </mxCell>
        <mxCell id="RkmBpbCj7bopOaLlgFP4-59" value="[can&#39;t cut]" style="text;html=1;align=center;verticalAlign=middle;resizable=0;points=[];autosize=1;strokeColor=none;fillColor=none;" parent="1" vertex="1">
          <mxGeometry x="525" y="620" width="70" height="30" as="geometry" />
        </mxCell>
        <mxCell id="RkmBpbCj7bopOaLlgFP4-60" value="[can cut]" style="text;html=1;align=center;verticalAlign=middle;resizable=0;points=[];autosize=1;strokeColor=none;fillColor=none;" parent="1" vertex="1">
          <mxGeometry x="400" y="780" width="70" height="30" as="geometry" />
        </mxCell>
        <mxCell id="RkmBpbCj7bopOaLlgFP4-61" value="/setEffect" style="text;html=1;align=center;verticalAlign=middle;resizable=0;points=[];autosize=1;strokeColor=none;fillColor=none;" parent="1" vertex="1">
          <mxGeometry x="215" y="555" width="70" height="30" as="geometry" />
        </mxCell>
        <mxCell id="RkmBpbCj7bopOaLlgFP4-62" value="HasTurn" style="rounded=1;whiteSpace=wrap;html=1;arcSize=40;fontColor=#000000;fillColor=#ffffc0;strokeColor=#ff0000;" parent="1" vertex="1">
          <mxGeometry x="470" y="250" width="120" height="40" as="geometry" />
        </mxCell>
        <mxCell id="RkmBpbCj7bopOaLlgFP4-66" value="" style="edgeStyle=orthogonalEdgeStyle;html=1;verticalAlign=bottom;endArrow=open;endSize=8;strokeColor=#ff0000;rounded=0;entryX=0;entryY=0.5;entryDx=0;entryDy=0;exitX=0.5;exitY=1;exitDx=0;exitDy=0;" parent="1" source="RkmBpbCj7bopOaLlgFP4-9" target="RkmBpbCj7bopOaLlgFP4-62" edge="1">
          <mxGeometry relative="1" as="geometry">
            <mxPoint x="340" y="390" as="targetPoint" />
            <mxPoint x="340" y="330" as="sourcePoint" />
          </mxGeometry>
        </mxCell>
        <mxCell id="RkmBpbCj7bopOaLlgFP4-68" value="" style="edgeStyle=orthogonalEdgeStyle;html=1;verticalAlign=bottom;endArrow=open;endSize=8;strokeColor=#ff0000;rounded=0;exitX=0.5;exitY=1;exitDx=0;exitDy=0;entryX=0.5;entryY=0;entryDx=0;entryDy=0;" parent="1" source="RkmBpbCj7bopOaLlgFP4-62" target="RkmBpbCj7bopOaLlgFP4-70" edge="1">
          <mxGeometry relative="1" as="geometry">
            <mxPoint x="530" y="340" as="targetPoint" />
            <mxPoint x="325" y="330" as="sourcePoint" />
          </mxGeometry>
        </mxCell>
        <mxCell id="RkmBpbCj7bopOaLlgFP4-69" value="checkIfStunned" style="text;html=1;align=center;verticalAlign=middle;resizable=0;points=[];autosize=1;strokeColor=none;fillColor=none;" parent="1" vertex="1">
          <mxGeometry x="425" y="300" width="110" height="30" as="geometry" />
        </mxCell>
        <mxCell id="RkmBpbCj7bopOaLlgFP4-70" value="" style="rhombus;whiteSpace=wrap;html=1;" parent="1" vertex="1">
          <mxGeometry x="500" y="340" width="60" height="60" as="geometry" />
        </mxCell>
        <mxCell id="RkmBpbCj7bopOaLlgFP4-71" value="" style="edgeStyle=orthogonalEdgeStyle;html=1;verticalAlign=bottom;endArrow=open;endSize=8;strokeColor=#ff0000;rounded=0;exitX=0.5;exitY=1;exitDx=0;exitDy=0;entryX=0.5;entryY=0;entryDx=0;entryDy=0;" parent="1" source="RkmBpbCj7bopOaLlgFP4-70" target="RkmBpbCj7bopOaLlgFP4-10" edge="1">
          <mxGeometry relative="1" as="geometry">
            <mxPoint x="540" y="350" as="targetPoint" />
            <mxPoint x="540" y="300" as="sourcePoint" />
          </mxGeometry>
        </mxCell>
        <mxCell id="RkmBpbCj7bopOaLlgFP4-72" value="" style="edgeStyle=orthogonalEdgeStyle;html=1;verticalAlign=bottom;endArrow=open;endSize=8;strokeColor=#ff0000;rounded=0;exitX=0;exitY=0.5;exitDx=0;exitDy=0;entryX=0.5;entryY=1;entryDx=0;entryDy=0;" parent="1" source="RkmBpbCj7bopOaLlgFP4-70" target="RkmBpbCj7bopOaLlgFP4-8" edge="1">
          <mxGeometry relative="1" as="geometry">
            <mxPoint x="550" y="360" as="targetPoint" />
            <mxPoint x="550" y="310" as="sourcePoint" />
          </mxGeometry>
        </mxCell>
        <mxCell id="RkmBpbCj7bopOaLlgFP4-73" value="[is stunned]" style="text;html=1;align=center;verticalAlign=middle;resizable=0;points=[];autosize=1;strokeColor=none;fillColor=none;" parent="1" vertex="1">
          <mxGeometry x="305" y="340" width="80" height="30" as="geometry" />
        </mxCell>
        <mxCell id="RkmBpbCj7bopOaLlgFP4-74" value="[isn&#39;t stunned]" style="text;html=1;align=center;verticalAlign=middle;resizable=0;points=[];autosize=1;strokeColor=none;fillColor=none;" parent="1" vertex="1">
          <mxGeometry x="435" y="400" width="100" height="30" as="geometry" />
        </mxCell>
      </root>
    </mxGraphModel>
  </diagram>
  <diagram id="fvo-ZWUTkfIVBh4fSzhd" name="2 oldal">
    <mxGraphModel dx="1434" dy="780" grid="1" gridSize="10" guides="1" tooltips="1" connect="1" arrows="1" fold="1" page="1" pageScale="1" pageWidth="827" pageHeight="1169" math="0" shadow="0">
      <root>
        <mxCell id="0" />
        <mxCell id="1" parent="0" />
        <mxCell id="zqozf-nbstXWGJmwLp9R-1" value="" style="ellipse;html=1;shape=startState;fillColor=#000000;strokeColor=#ff0000;" vertex="1" parent="1">
          <mxGeometry x="225" y="105" width="30" height="30" as="geometry" />
        </mxCell>
        <mxCell id="zqozf-nbstXWGJmwLp9R-2" value="" style="edgeStyle=orthogonalEdgeStyle;html=1;verticalAlign=bottom;endArrow=open;endSize=8;strokeColor=#ff0000;rounded=0;" edge="1" parent="1" source="zqozf-nbstXWGJmwLp9R-14">
          <mxGeometry relative="1" as="geometry">
            <mxPoint x="620" y="120" as="targetPoint" />
          </mxGeometry>
        </mxCell>
        <mxCell id="zqozf-nbstXWGJmwLp9R-3" value="" style="endArrow=open;html=1;rounded=0;strokeColor=#FF0000;exitX=0.5;exitY=0;exitDx=0;exitDy=0;edgeStyle=orthogonalEdgeStyle;entryX=0.5;entryY=0;entryDx=0;entryDy=0;endFill=0;" edge="1" parent="1" source="zqozf-nbstXWGJmwLp9R-20" target="zqozf-nbstXWGJmwLp9R-14">
          <mxGeometry width="50" height="50" relative="1" as="geometry">
            <mxPoint x="652.79" y="84.64466094067257" as="sourcePoint" />
            <mxPoint x="560" y="30" as="targetPoint" />
          </mxGeometry>
        </mxCell>
        <mxCell id="zqozf-nbstXWGJmwLp9R-4" value="" style="endArrow=open;html=1;rounded=0;strokeColor=#FF0000;exitX=0;exitY=1;exitDx=0;exitDy=0;endFill=0;" edge="1" parent="1">
          <mxGeometry width="50" height="50" relative="1" as="geometry">
            <mxPoint x="652.79" y="155.35533905932743" as="sourcePoint" />
            <mxPoint x="653" y="240" as="targetPoint" />
          </mxGeometry>
        </mxCell>
        <mxCell id="zqozf-nbstXWGJmwLp9R-5" value="&lt;div&gt;WaitForInput&lt;/div&gt;" style="rounded=1;whiteSpace=wrap;html=1;arcSize=40;fontColor=#000000;fillColor=#ffffc0;strokeColor=#ff0000;" vertex="1" parent="1">
          <mxGeometry x="592.79" y="480" width="120" height="40" as="geometry" />
        </mxCell>
        <mxCell id="zqozf-nbstXWGJmwLp9R-6" value="[e is not owner]" style="text;html=1;align=center;verticalAlign=middle;whiteSpace=wrap;rounded=0;" vertex="1" parent="1">
          <mxGeometry x="470" y="40" width="90" height="30" as="geometry" />
        </mxCell>
        <mxCell id="zqozf-nbstXWGJmwLp9R-7" value="[e is owner]" style="text;html=1;align=center;verticalAlign=middle;resizable=0;points=[];autosize=1;strokeColor=none;fillColor=none;" vertex="1" parent="1">
          <mxGeometry x="660" y="170" width="80" height="30" as="geometry" />
        </mxCell>
        <mxCell id="zqozf-nbstXWGJmwLp9R-8" value="ejectSpores" style="text;html=1;align=center;verticalAlign=middle;resizable=0;points=[];autosize=1;strokeColor=none;fillColor=none;" vertex="1" parent="1">
          <mxGeometry x="655" y="540" width="90" height="30" as="geometry" />
        </mxCell>
        <mxCell id="zqozf-nbstXWGJmwLp9R-9" value="" style="endArrow=open;html=1;rounded=0;strokeColor=#FF0000;endFill=0;exitX=0.5;exitY=1;exitDx=0;exitDy=0;" edge="1" parent="1" source="zqozf-nbstXWGJmwLp9R-19" target="zqozf-nbstXWGJmwLp9R-5">
          <mxGeometry width="50" height="50" relative="1" as="geometry">
            <mxPoint x="420" y="650" as="sourcePoint" />
            <mxPoint x="340" y="765" as="targetPoint" />
          </mxGeometry>
        </mxCell>
        <mxCell id="zqozf-nbstXWGJmwLp9R-10" value="&lt;div&gt;Eject&lt;/div&gt;" style="rounded=1;whiteSpace=wrap;html=1;arcSize=40;fontColor=#000000;fillColor=#ffffc0;strokeColor=#ff0000;" vertex="1" parent="1">
          <mxGeometry x="592.79" y="590" width="120" height="40" as="geometry" />
        </mxCell>
        <mxCell id="zqozf-nbstXWGJmwLp9R-11" value="" style="edgeStyle=orthogonalEdgeStyle;html=1;verticalAlign=bottom;endArrow=none;endSize=8;strokeColor=#ff0000;rounded=0;elbow=vertical;startFill=0;" edge="1" parent="1" source="zqozf-nbstXWGJmwLp9R-27">
          <mxGeometry relative="1" as="geometry">
            <mxPoint x="400" y="240" as="targetPoint" />
            <Array as="points">
              <mxPoint x="170" y="500" />
              <mxPoint x="170" y="240" />
              <mxPoint x="370" y="240" />
            </Array>
          </mxGeometry>
        </mxCell>
        <mxCell id="zqozf-nbstXWGJmwLp9R-12" value="onTurnBegin(e : Player)" style="text;html=1;align=center;verticalAlign=middle;resizable=0;points=[];autosize=1;strokeColor=none;fillColor=none;" vertex="1" parent="1">
          <mxGeometry x="460" y="120" width="150" height="30" as="geometry" />
        </mxCell>
        <mxCell id="zqozf-nbstXWGJmwLp9R-13" value="" style="edgeStyle=orthogonalEdgeStyle;html=1;verticalAlign=bottom;endArrow=open;endSize=8;strokeColor=#ff0000;rounded=0;" edge="1" parent="1" source="zqozf-nbstXWGJmwLp9R-1" target="zqozf-nbstXWGJmwLp9R-14">
          <mxGeometry relative="1" as="geometry">
            <mxPoint x="410" y="115" as="targetPoint" />
            <mxPoint x="300" y="115" as="sourcePoint" />
          </mxGeometry>
        </mxCell>
        <mxCell id="zqozf-nbstXWGJmwLp9R-14" value="&lt;div&gt;WaitingForTurn&lt;/div&gt;" style="rounded=1;whiteSpace=wrap;html=1;arcSize=40;fontColor=#000000;fillColor=#ffffc0;strokeColor=#ff0000;" vertex="1" parent="1">
          <mxGeometry x="340" y="100" width="120" height="40" as="geometry" />
        </mxCell>
        <mxCell id="zqozf-nbstXWGJmwLp9R-15" value="[alive]" style="text;html=1;align=center;verticalAlign=middle;resizable=0;points=[];autosize=1;strokeColor=none;fillColor=none;" vertex="1" parent="1">
          <mxGeometry x="662.79" y="430" width="50" height="30" as="geometry" />
        </mxCell>
        <mxCell id="zqozf-nbstXWGJmwLp9R-16" value="&lt;div&gt;WaitForStatus&lt;/div&gt;" style="rounded=1;whiteSpace=wrap;html=1;arcSize=40;fontColor=#000000;fillColor=#ffffc0;strokeColor=#ff0000;" vertex="1" parent="1">
          <mxGeometry x="592.79" y="240" width="120" height="40" as="geometry" />
        </mxCell>
        <mxCell id="zqozf-nbstXWGJmwLp9R-17" value="" style="edgeStyle=orthogonalEdgeStyle;html=1;verticalAlign=bottom;endArrow=open;endSize=8;strokeColor=#ff0000;rounded=0;exitX=0.5;exitY=1;exitDx=0;exitDy=0;" edge="1" parent="1" source="zqozf-nbstXWGJmwLp9R-16" target="zqozf-nbstXWGJmwLp9R-19">
          <mxGeometry relative="1" as="geometry">
            <mxPoint x="500" y="585" as="targetPoint" />
            <mxPoint x="560" y="650" as="sourcePoint" />
          </mxGeometry>
        </mxCell>
        <mxCell id="zqozf-nbstXWGJmwLp9R-18" value="" style="endArrow=open;html=1;rounded=0;strokeColor=#FF0000;exitX=0.5;exitY=1;exitDx=0;exitDy=0;endFill=0;" edge="1" parent="1" source="zqozf-nbstXWGJmwLp9R-5">
          <mxGeometry width="50" height="50" relative="1" as="geometry">
            <mxPoint x="409.64466094067257" y="595" as="sourcePoint" />
            <mxPoint x="653" y="590" as="targetPoint" />
          </mxGeometry>
        </mxCell>
        <mxCell id="zqozf-nbstXWGJmwLp9R-19" value="" style="rhombus;whiteSpace=wrap;html=1;" vertex="1" parent="1">
          <mxGeometry x="612.79" y="340" width="80" height="80" as="geometry" />
        </mxCell>
        <mxCell id="zqozf-nbstXWGJmwLp9R-20" value="" style="rhombus;whiteSpace=wrap;html=1;" vertex="1" parent="1">
          <mxGeometry x="612.79" y="80" width="80" height="80" as="geometry" />
        </mxCell>
        <mxCell id="zqozf-nbstXWGJmwLp9R-21" value="" style="endArrow=open;html=1;rounded=0;strokeColor=#FF0000;endFill=0;startFill=0;exitX=0;exitY=0.5;exitDx=0;exitDy=0;entryX=0.5;entryY=1;entryDx=0;entryDy=0;edgeStyle=orthogonalEdgeStyle;startArrow=none;" edge="1" parent="1" source="zqozf-nbstXWGJmwLp9R-19" target="zqozf-nbstXWGJmwLp9R-14">
          <mxGeometry width="50" height="50" relative="1" as="geometry">
            <mxPoint x="460" y="610" as="sourcePoint" />
            <mxPoint x="380" y="350" as="targetPoint" />
          </mxGeometry>
        </mxCell>
        <mxCell id="zqozf-nbstXWGJmwLp9R-22" value="[dead]" style="text;html=1;align=center;verticalAlign=middle;resizable=0;points=[];autosize=1;strokeColor=none;fillColor=none;" vertex="1" parent="1">
          <mxGeometry x="475" y="350" width="60" height="30" as="geometry" />
        </mxCell>
        <mxCell id="zqozf-nbstXWGJmwLp9R-23" value="checkAlive" style="text;html=1;align=center;verticalAlign=middle;resizable=0;points=[];autosize=1;strokeColor=none;fillColor=none;" vertex="1" parent="1">
          <mxGeometry x="655" y="300" width="80" height="30" as="geometry" />
        </mxCell>
        <mxCell id="zqozf-nbstXWGJmwLp9R-24" value="" style="endArrow=none;html=1;rounded=0;strokeColor=#FF0000;endFill=0;exitX=0;exitY=0.5;exitDx=0;exitDy=0;entryX=0.683;entryY=1.033;entryDx=0;entryDy=0;entryPerimeter=0;edgeStyle=orthogonalEdgeStyle;startFill=0;" edge="1" parent="1" source="zqozf-nbstXWGJmwLp9R-5" target="zqozf-nbstXWGJmwLp9R-22">
          <mxGeometry width="50" height="50" relative="1" as="geometry">
            <mxPoint x="580" y="520" as="sourcePoint" />
            <mxPoint x="490" y="500" as="targetPoint" />
          </mxGeometry>
        </mxCell>
        <mxCell id="zqozf-nbstXWGJmwLp9R-25" value="Die" style="rounded=1;whiteSpace=wrap;html=1;arcSize=40;fontColor=#000000;fillColor=#ffffc0;strokeColor=#ff0000;" vertex="1" parent="1">
          <mxGeometry x="340" y="410" width="120" height="40" as="geometry" />
        </mxCell>
        <mxCell id="zqozf-nbstXWGJmwLp9R-26" value="" style="edgeStyle=elbowEdgeStyle;html=1;verticalAlign=bottom;endArrow=open;endSize=8;strokeColor=#ff0000;rounded=0;elbow=vertical;entryX=0.5;entryY=1;entryDx=0;entryDy=0;" edge="1" parent="1" target="zqozf-nbstXWGJmwLp9R-27">
          <mxGeometry relative="1" as="geometry">
            <mxPoint x="190" y="560" as="targetPoint" />
            <mxPoint x="592.79" y="610" as="sourcePoint" />
            <Array as="points">
              <mxPoint x="390" y="610" />
            </Array>
          </mxGeometry>
        </mxCell>
        <mxCell id="zqozf-nbstXWGJmwLp9R-27" value="" style="rhombus;whiteSpace=wrap;html=1;" vertex="1" parent="1">
          <mxGeometry x="210" y="460" width="80" height="80" as="geometry" />
        </mxCell>
        <mxCell id="zqozf-nbstXWGJmwLp9R-28" value="checkRemainingEjects" style="text;html=1;align=center;verticalAlign=middle;whiteSpace=wrap;rounded=0;" vertex="1" parent="1">
          <mxGeometry x="380" y="580" width="130" height="30" as="geometry" />
        </mxCell>
        <mxCell id="zqozf-nbstXWGJmwLp9R-29" value="[more than 0]" style="text;html=1;align=center;verticalAlign=middle;resizable=0;points=[];autosize=1;strokeColor=none;fillColor=none;" vertex="1" parent="1">
          <mxGeometry x="80" y="350" width="90" height="30" as="geometry" />
        </mxCell>
        <mxCell id="zqozf-nbstXWGJmwLp9R-30" value="" style="endArrow=open;html=1;rounded=0;strokeColor=#FF0000;exitX=0.5;exitY=0;exitDx=0;exitDy=0;edgeStyle=orthogonalEdgeStyle;entryX=0;entryY=0.5;entryDx=0;entryDy=0;endFill=0;" edge="1" parent="1" source="zqozf-nbstXWGJmwLp9R-27" target="zqozf-nbstXWGJmwLp9R-25">
          <mxGeometry width="50" height="50" relative="1" as="geometry">
            <mxPoint x="653" y="330" as="sourcePoint" />
            <mxPoint x="400" y="350" as="targetPoint" />
          </mxGeometry>
        </mxCell>
        <mxCell id="zqozf-nbstXWGJmwLp9R-31" value="[equals to 0]" style="text;html=1;align=center;verticalAlign=middle;resizable=0;points=[];autosize=1;strokeColor=none;fillColor=none;" vertex="1" parent="1">
          <mxGeometry x="250" y="400" width="90" height="30" as="geometry" />
        </mxCell>
        <mxCell id="zqozf-nbstXWGJmwLp9R-32" value="" style="endArrow=none;html=1;rounded=0;strokeColor=#FF0000;exitX=0.5;exitY=0;exitDx=0;exitDy=0;endFill=0;startFill=0;" edge="1" parent="1" source="zqozf-nbstXWGJmwLp9R-25">
          <mxGeometry width="50" height="50" relative="1" as="geometry">
            <mxPoint x="260" y="470" as="sourcePoint" />
            <mxPoint x="400" y="380" as="targetPoint" />
          </mxGeometry>
        </mxCell>
        <mxCell id="zqozf-nbstXWGJmwLp9R-33" value="endTurn" style="text;html=1;align=center;verticalAlign=middle;resizable=0;points=[];autosize=1;strokeColor=none;fillColor=none;" vertex="1" parent="1">
          <mxGeometry x="522.79" y="470" width="70" height="30" as="geometry" />
        </mxCell>
      </root>
    </mxGraphModel>
  </diagram>
</mxfile>
